<svg id="Layer_1" data-name="Layer 1" xmlns="http://www.w3.org/2000/svg" viewBox="0 0 588.079 94.097"><defs><style>.cls-1{fill:#fff;}.cls-2{fill:none;stroke:#fff;stroke-linecap:round;stroke-linejoin:round;stroke-width:7px;}</style></defs><path class="cls-1" d="M164.8,35.583q8.637,0,14.48,7.949l.3,1.074v1.161q0,3.18-4.34,3.91-1.977,0-5.371-3.781a8.5,8.5,0,0,0-4.554-1.5h-.989q-4.639,0-7.047,5.027a5.3,5.3,0,0,0-.515,2.234v1.332q0,5.329,6.445,7.735,5.63,0,12.332,5.414,6.488,6.574,6.488,14.437,0,9.669-8.293,15.813a19.223,19.223,0,0,1-11.214,3.523q-9.969,0-16.629-8.765l-.473-1.848q.816-4.425,4.469-4.426,2.321,0,5.285,3.781A11.828,11.828,0,0,0,161.7,91.1h1.461q5.758,0,9.324-6.575a13.645,13.645,0,0,0,.559-3.136V79.755q0-5.715-6.617-9.324l-8.379-2.321q-10.141-5.842-10.141-15.3v-1.16q0-9.366,9.926-14.609A19.212,19.212,0,0,1,164.8,35.583Z" transform="translate(-20.242 -26.059)"/><path class="cls-1" d="M206.907,53.587q8.98,0,16.243,6.789,6.916,7.262,6.917,16.371,0,13.02-12.289,20.453a23.05,23.05,0,0,1-10.4,2.707h-1.289q-9.368,0-17.4-8.765a24.559,24.559,0,0,1-4.942-14.395q0-11.3,9.969-18.906A23.407,23.407,0,0,1,206.907,53.587ZM192.728,76.274v.774q0,8.035,7.777,12.461a12.754,12.754,0,0,0,5.93,1.418h.945q8.292,0,12.719-8.637a15.022,15.022,0,0,0,.988-5.242v-.774q0-6.66-6.145-11.257a14.143,14.143,0,0,0-8.207-2.45q-9.066,0-13.32,9.539A14.234,14.234,0,0,0,192.728,76.274Z" transform="translate(-20.242 -26.059)"/><path class="cls-1" d="M271.06,95.181A21.228,21.228,0,0,1,257.7,99.907h-1.117q-10.656,0-18.476-10.4a24.948,24.948,0,0,1-3.61-13.75V58.1q.516-4.9,4.684-4.9,4.167,1.075,4.168,4.039V74.47q0,10.313,5.715,13.75a13.1,13.1,0,0,0,8.164,2.836q8.55,0,12.933-8.852a19.277,19.277,0,0,0,.9-5.8V57.583q.858-4.383,4.64-4.383,4.211.947,4.211,4.34V95.868q0,3.224-4.211,4.039h-.429q-4.212-.772-4.211-4.34Z" transform="translate(-20.242 -26.059)"/><path class="cls-1" d="M290.567,53.372q4.168,1.074,4.168,4.039v.645q5.157-4.683,13.922-4.684,9.626,0,17.059,7.992,5.413,6.7,5.414,14.137v20.41q0,3.18-4.211,4h-.43q-4.21-.772-4.211-4.34V77.606q0-11.17-9.5-14.652a16.662,16.662,0,0,0-4.125-.6h-.472q-7.95,0-12.332,8.293-1.118,2.448-1.118,8.25V95.739q0,3.438-4.21,4.168h-.3q-3.523,0-4.34-4.383V58.271Q286.4,53.372,290.567,53.372Z" transform="translate(-20.242 -26.059)"/><path class="cls-1" d="M375.989,35.8h.774q4.08.859,4.082,3.91V71.849l.172,5.5q0,6.789-5.5,14.136-7.779,8.423-17.532,8.422H356.7q-9.539,0-17.7-8.894a25.028,25.028,0,0,1-5.027-14.653q0-11.428,10.141-19.207a23.834,23.834,0,0,1,13.406-4.3q8.937,0,14.609,5.071V42.5l-.172-2.793Q373.195,35.8,375.989,35.8ZM342.86,75.888V76.7q0,9.11,9.582,13.578a16.284,16.284,0,0,0,4.555.731h.988q8.851,0,13.407-9.539a19.577,19.577,0,0,0,.73-4.426V76.06q0-9.066-9.711-13.579a20.771,20.771,0,0,0-4.6-.73h-.645q-8.851,0-13.406,9.41A14.683,14.683,0,0,0,342.86,75.888Z" transform="translate(-20.242 -26.059)"/><path class="cls-1" d="M403.446,35.583q8.637,0,14.481,7.949l.3,1.074v1.161q0,3.18-4.34,3.91-1.978,0-5.371-3.781a8.507,8.507,0,0,0-4.555-1.5h-.988q-4.641,0-7.047,5.027a5.291,5.291,0,0,0-.516,2.234v1.332q0,5.329,6.446,7.735,5.626,0,12.332,5.414,6.488,6.574,6.488,14.437,0,9.669-8.293,15.813a19.228,19.228,0,0,1-11.215,3.523q-9.969,0-16.629-8.765l-.473-1.848q.816-4.425,4.469-4.426,2.321,0,5.285,3.781a11.828,11.828,0,0,0,6.532,2.45h1.461q5.755,0,9.324-6.575a13.63,13.63,0,0,0,.558-3.136V79.755q0-5.715-6.617-9.324L396.7,68.11q-10.14-5.842-10.14-15.3v-1.16q0-9.366,9.925-14.609A19.217,19.217,0,0,1,403.446,35.583Z" transform="translate(-20.242 -26.059)"/><path class="cls-1" d="M434.728,37.6h.73q4,.86,4,3.824v12.89h5.113l1.418-.171q3.309,0,4.34,4.3,0,3.224-3.781,4.6l-2.578-.172h-4.512V84.739q0,5.157,2.922,6.145l3.4.3h1.718q3.137,0,3.953,4.168v.386q-.731,4.168-4.3,4.168h-3.309q-8.337,0-12.375-9.023a17.007,17.007,0,0,1-.73-5.2V62.868h-1.805l-2.75.172q-3.783-1.332-3.781-4.555.729-4.167,2.836-4.168v-.3l2.964.3h2.536V42.286Q431.246,37.6,434.728,37.6Z" transform="translate(-20.242 -26.059)"/><path class="cls-1" d="M475.247,53.587q8.979,0,16.242,6.789,6.918,7.262,6.918,16.371,0,13.02-12.289,20.453a23.053,23.053,0,0,1-10.4,2.707h-1.289q-9.368,0-17.4-8.765a24.558,24.558,0,0,1-4.941-14.395q0-11.3,9.969-18.906A23.4,23.4,0,0,1,475.247,53.587Zm-14.18,22.687v.774q0,8.035,7.778,12.461a12.751,12.751,0,0,0,5.93,1.418h.945q8.292,0,12.719-8.637a15.022,15.022,0,0,0,.988-5.242v-.774q0-6.66-6.145-11.257a14.145,14.145,0,0,0-8.207-2.45q-9.068,0-13.32,9.539A14.2,14.2,0,0,0,461.067,76.274Z" transform="translate(-20.242 -26.059)"/><path class="cls-1" d="M508.763,53.028q4.209,1.075,4.211,4.039v.688q5.326-4.727,13.879-4.727a25.293,25.293,0,0,1,9.968,2.321A5.4,5.4,0,0,1,538.669,59v.3q-.731,4.211-4.34,4.211h-.387A24.172,24.172,0,0,0,527.5,62.1h-.945q-8.681,0-12.719,9.023a16.07,16.07,0,0,0-.859,5.5V95.7q0,3.481-4.3,4.211h-.258q-3.525,0-4.34-4.383V57.97Q504.6,53.029,508.763,53.028Z" transform="translate(-20.242 -26.059)"/><path class="cls-1" d="M546.919,54.1a3.886,3.886,0,0,1,4.125,2.835q3.48-2.835,10.1-2.835a17.408,17.408,0,0,1,14.136,6.531q1.848-3.438,10.356-6.016l3.781-.515q10.7,0,16.844,10.14a18.7,18.7,0,0,1,2.062,8.164V95.954q0,3.137-4.168,3.953h-.386q-4.17-.73-4.168-4.3V72.751q0-6.874-7.219-9.5L590.4,63h-1.5q-5.716,0-8.766,6.7a9.417,9.417,0,0,0-.387,2.406v23.5q-.772,4.3-4.254,4.3h-.3q-4.168-.73-4.167-4.125V76.36q0-7.518-1.848-9.238A9.484,9.484,0,0,0,561.271,63H560.8q-6.618,0-9.324,7.133a20.12,20.12,0,0,0-.43,4.683V95.782q0,3.395-4.168,4.125h-.258q-3.48,0-4.3-4.3V58.958Q542.794,54.1,546.919,54.1Z" transform="translate(-20.242 -26.059)"/><polyline class="cls-2" points="61.251 30.21 31.832 58.597 61.251 58.597 33.767 90.597"/><path class="cls-2" d="M113.935,29.559H33.684a6.194,6.194,0,0,0-6.194,6.194h0a6.194,6.194,0,0,0,6.194,6.194h81.1a7.162,7.162,0,0,1,7.162,7.161h0a7.162,7.162,0,0,1-7.162,7.161H23.742" transform="translate(-20.242 -26.059)"/></svg>